<svg width="90" height="90" viewBox="0 0 90 90" fill="none" xmlns="http://www.w3.org/2000/svg">
<path d="M45 90C69.8528 90 90 69.8528 90 45C90 20.1472 69.8528 0 45 0C20.1472 0 0 20.1472 0 45C0 69.8528 20.1472 90 45 90Z" fill="white"/>
<path d="M60.1342 61.747C56.139 65.3742 50.8297 67.5768 45.0209 67.5768C32.5706 67.5768 22.4516 57.4536 22.4516 44.9991V16.0347C21.2859 16.9597 20.1398 17.9406 19.0665 19.0321C4.74801 33.3562 4.74801 56.656 19.0665 70.9815C33.1625 85.0831 55.9543 85.3056 70.3274 71.6294L60.1342 61.747Z" fill="#00C398"/>
<path d="M54.3266 55.2455C54.4568 55.1154 54.6037 55.0048 54.7339 54.8747C55.0851 54.5416 55.4364 54.1904 55.7694 53.8377L72.0666 69.6984L72.0848 69.7165C84.6457 55.9662 84.8682 34.9419 72.7327 20.9326L60.9863 32.6846L59.1363 30.8347C55.3622 27.0591 50.3496 24.9684 45.0221 24.9684C40.5273 24.9684 36.29 26.4308 32.7565 29.2072C32.7565 29.2072 31.7392 30.0398 31.1472 30.3729V40.3673H53.0686L44.503 49.0658H31.7756C33.5332 54.711 38.8047 58.8377 45.0389 58.8377C48.2575 58.8377 51.2172 57.7266 53.5668 55.8948C53.8075 55.7073 54.0664 55.4862 54.3266 55.2455Z" fill="#007E94"/>
<path d="M60.9668 29.0265C56.8792 24.9361 51.2368 22.4005 45.0208 22.4005C39.7857 22.4005 34.976 24.1959 31.1459 27.1933V10.9815C44.4092 5.57706 60.2265 8.26108 70.9933 19.0139L65.9989 24.0111L60.9668 29.0265Z" fill="#00C398"/>
</svg>
